<svg width="343" height="79" viewBox="0 0 343 79" fill="none" xmlns="http://www.w3.org/2000/svg">
<path d="M0 34V0H29.8312V34H21.7382V1.9972L25.5965 6.84755H3.76419L8.09301 1.9972V34H0Z" fill="#252533"/>
<path d="M45.45 34H37.357V0H51.4257C53.9351 0 56.1466 0.459673 58.06 1.37902C59.9735 2.29837 61.4635 3.58229 62.53 5.23077C63.5965 6.84755 64.1298 8.74965 64.1298 10.9371C64.1298 13.0928 63.5965 14.9949 62.53 16.6434C61.4635 18.2918 59.9735 19.5758 58.06 20.4951C56.1466 21.4145 53.9351 21.8741 51.4257 21.8741H44.9795V15.0741H51.4257C52.8059 15.0741 53.9037 14.7096 54.7193 13.9804C55.5349 13.2196 55.9427 12.2051 55.9427 10.9371C55.9427 9.669 55.5349 8.6704 54.7193 7.94126C53.9037 7.18042 52.8059 6.8 51.4257 6.8H45.45V34Z" fill="#252533"/>
<path d="M89.8318 27.8182H68.8464V21.0182H89.8318V27.8182ZM96.9837 34H88.2791L78.2099 5.99161H80.2802L70.1639 34H61.7415L74.8691 0H83.8561L96.9837 34Z" fill="#252533"/>
<path d="M101.916 34V0H116.785C119.043 0 121.019 0.364569 122.713 1.09371C124.407 1.82284 125.725 2.85315 126.666 4.18462C127.607 5.48438 128.077 7.02191 128.077 8.7972C128.077 10.4774 127.607 11.9674 126.666 13.2671C125.725 14.5669 124.407 15.5814 122.713 16.3105C121.019 17.0396 119.043 17.4042 116.785 17.4042H110.48V14.8839H116.785C119.326 14.8839 121.537 15.2643 123.419 16.0252C125.333 16.7543 126.823 17.8005 127.889 19.1636C128.956 20.5268 129.489 22.1436 129.489 24.014C129.489 26.0112 128.956 27.7706 127.889 29.2923C126.823 30.7823 125.333 31.9394 123.419 32.7636C121.537 33.5879 119.326 34 116.785 34H101.916ZM110.009 27.2951H116.832C118.212 27.2951 119.294 26.9622 120.078 26.2965C120.894 25.5991 121.302 24.648 121.302 23.4434C121.302 22.3338 120.894 21.462 120.078 20.828C119.294 20.1939 118.212 19.8769 116.832 19.8769H109.539V13.3622H116.22C117.381 13.3622 118.275 13.0611 118.902 12.4587C119.561 11.8247 119.89 10.9688 119.89 9.89091C119.89 8.87646 119.561 8.09977 118.902 7.56084C118.275 6.99021 117.381 6.7049 116.22 6.7049H110.009V27.2951Z" fill="#252533"/>
<path d="M158.848 27.8182H137.863V21.0182H158.848V27.8182ZM166 34H157.295L147.226 5.99161H149.296L139.18 34H130.758L143.885 0H152.872L166 34Z" fill="#252533"/>
<path d="M8.13841 78.2503H0V44.7497H8.13841V78.2503ZM33.0741 78.2503H22.4753L6.9555 60.8675H7.71255L21.245 44.7497H31.0868L16.5134 61.5703V60.1647L33.0741 78.2503Z" fill="#252533"/>
<path d="M62.0568 72.1593H40.9538V65.4592H62.0568V72.1593ZM69.2489 78.2503H60.4954L50.3697 50.6533H52.4516L42.2786 78.2503H33.809L47.0102 44.7497H56.0477L69.2489 78.2503Z" fill="#252533"/>
<path d="M84.4711 78.2503H76.3327V51.075H84.4711V78.2503ZM94.6441 51.5435H66.1597V44.7497H94.6441V51.5435Z" fill="#252533"/>
<path d="M124.553 78.2503H99.854V44.7497H124.553V51.4498H107.992V71.5502H124.553V78.2503ZM123.654 64.7564H107.519V58.0562H123.654V64.7564Z" fill="#252533"/>
<path d="M130.49 78.2503V44.7497H153.769V51.5435H134.275L138.628 46.7175V78.2503H130.49Z" fill="#252533"/>
<path d="M173.21 79C170.529 79 168.069 78.5627 165.829 77.6881C163.589 76.8135 161.634 75.5953 159.962 74.0335C158.321 72.4717 157.044 70.6287 156.129 68.5047C155.246 66.3494 154.804 64.0067 154.804 61.4766C154.804 58.9465 155.246 56.6194 156.129 54.4953C157.044 52.3713 158.321 50.5283 159.962 48.9665C161.634 47.4047 163.589 46.1865 165.829 45.3119C168.069 44.4373 170.529 44 173.21 44C175.891 44 178.352 44.4373 180.592 45.3119C182.831 46.1865 184.771 47.4047 186.411 48.9665C188.083 50.5283 189.361 52.3713 190.244 54.4953C191.159 56.6194 191.616 58.9465 191.616 61.4766C191.616 64.0067 191.159 66.3494 190.244 68.5047C189.361 70.6287 188.083 72.4717 186.411 74.0335C184.771 75.5953 182.831 76.8135 180.592 77.6881C178.352 78.5627 175.891 79 173.21 79ZM173.21 71.925C175.166 71.925 176.869 71.4877 178.32 70.6131C179.803 69.7073 180.954 68.4734 181.774 66.9116C182.626 65.3186 183.052 63.5069 183.052 61.4766C183.052 59.4462 182.626 57.6502 181.774 56.0884C180.954 54.5266 179.803 53.3083 178.32 52.4337C176.869 51.5279 175.166 51.075 173.21 51.075C171.286 51.075 169.583 51.5279 168.1 52.4337C166.618 53.3083 165.45 54.5266 164.599 56.0884C163.779 57.6502 163.368 59.4462 163.368 61.4766C163.368 63.5069 163.779 65.3186 164.599 66.9116C165.45 68.4734 166.618 69.7073 168.1 70.6131C169.583 71.4877 171.286 71.925 173.21 71.925Z" fill="#252533"/>
<path d="M205.767 78.2503H197.629V44.7497H211.776C214.3 44.7497 216.524 45.2026 218.448 46.1084C220.372 47.0143 221.871 48.2793 222.943 49.9036C224.016 51.4967 224.552 53.3708 224.552 55.5261C224.552 57.6502 224.016 59.5243 222.943 61.1486C221.871 62.7729 220.372 64.0379 218.448 64.9438C216.524 65.8496 214.3 66.3025 211.776 66.3025H205.294V59.6024H211.776C213.164 59.6024 214.268 59.2432 215.089 58.5248C215.909 57.7751 216.319 56.7755 216.319 55.5261C216.319 54.2767 215.909 53.2927 215.089 52.5743C214.268 51.8246 213.164 51.4498 211.776 51.4498H205.767V78.2503Z" fill="#252533"/>
<path d="M229.974 78.2503V44.7497H238.112V74.9237H232.529L251.929 44.7497H260.446V78.2503H252.307V47.6546H257.985L238.491 78.2503H229.974Z" fill="#252533"/>
<path d="M268.003 78.2503V44.7497H276.141V74.9237H270.558L289.957 44.7497H298.474V78.2503H290.336V47.6546H296.014L276.52 78.2503H268.003Z" fill="#252533"/>
<path d="M315.273 78.2503V44.7497H330.225C332.496 44.7497 334.483 45.1089 336.186 45.8273C337.89 46.5457 339.215 47.5609 340.161 48.8728C341.107 50.1535 341.581 51.6685 341.581 53.4177C341.581 55.0732 341.107 56.5413 340.161 57.822C339.215 59.1026 337.89 60.1022 336.186 60.8206C334.483 61.539 332.496 61.8983 330.225 61.8983H323.884V59.415H330.225C332.78 59.415 335.004 59.7898 336.896 60.5395C338.82 61.2579 340.319 62.2887 341.391 63.6319C342.464 64.975 343 66.568 343 68.411C343 70.3788 342.464 72.1124 341.391 73.6118C340.319 75.0799 338.82 76.22 336.896 77.0321C335.004 77.8443 332.78 78.2503 330.225 78.2503H315.273ZM323.411 71.6439H330.272C331.66 71.6439 332.748 71.3159 333.537 70.66C334.357 69.9728 334.767 69.0357 334.767 67.8487C334.767 66.7555 334.357 65.8965 333.537 65.2718C332.748 64.647 331.66 64.3347 330.272 64.3347H322.938V57.9157H329.657C330.824 57.9157 331.723 57.6189 332.354 57.0254C333.016 56.4007 333.348 55.5573 333.348 54.4953C333.348 53.4958 333.016 52.7305 332.354 52.1995C331.723 51.6372 330.824 51.3561 329.657 51.3561H323.411V71.6439Z" fill="#252533"/>
</svg>
