<svg width="1320" height="89" viewBox="0 0 1320 89" fill="none" xmlns="http://www.w3.org/2000/svg">
<path d="M0 87.0937V1.90629H75.5497V87.0937H55.0536V6.9103L64.825 19.0629H9.53309L20.4961 6.9103V87.0937H0Z" fill="#252533"/>
<path d="M115.106 87.0937H94.6094V1.90629H130.239C136.595 1.90629 142.195 3.05801 147.041 5.36144C151.887 7.66488 155.661 10.8817 158.362 15.012C161.063 19.0629 162.413 23.8286 162.413 29.3092C162.413 34.7104 161.063 39.4761 158.362 43.6064C155.661 47.7367 151.887 50.9536 147.041 53.257C142.195 55.5605 136.595 56.7122 130.239 56.7122H113.914V39.6747H130.239C133.735 39.6747 136.515 38.7613 138.581 36.9344C140.646 35.0281 141.679 32.4864 141.679 29.3092C141.679 26.1321 140.646 23.6301 138.581 21.8032C136.515 19.8969 133.735 18.9438 130.239 18.9438H115.106V87.0937Z" fill="#252533"/>
<path d="M227.506 71.6051H174.359V54.5676H227.506V71.6051ZM245.618 87.0937H223.573L198.072 16.9183H203.315L177.695 87.0937H156.365L189.612 1.90629H212.372L245.618 87.0937Z" fill="#252533"/>
<path d="M258.11 87.0937V1.90629H295.766C301.486 1.90629 306.491 2.81972 310.78 4.64658C315.07 6.47345 318.407 9.05488 320.79 12.3909C323.173 15.6475 324.365 19.4998 324.365 23.9478C324.365 28.1575 323.173 31.8907 320.79 35.1473C318.407 38.4038 315.07 40.9456 310.78 42.7724C306.491 44.5993 301.486 45.5127 295.766 45.5127H279.798V39.1981H295.766C302.201 39.1981 307.801 40.1513 312.568 42.0576C317.414 43.8844 321.187 46.5056 323.888 49.921C326.59 53.3365 327.94 57.3873 327.94 62.0736C327.94 67.0776 326.59 71.4859 323.888 75.2985C321.187 79.0317 317.414 81.9308 312.568 83.996C307.801 86.0611 302.201 87.0937 295.766 87.0937H258.11ZM278.606 70.2945H295.885C299.38 70.2945 302.121 69.4605 304.107 67.7925C306.173 66.0451 307.206 63.6622 307.206 60.6439C307.206 57.8639 306.173 55.6796 304.107 54.091C302.121 52.5025 299.38 51.7082 295.885 51.7082H277.415V35.3855H294.336C297.275 35.3855 299.539 34.631 301.128 33.1218C302.797 31.5332 303.631 29.3887 303.631 26.6881C303.631 24.1464 302.797 22.2004 301.128 20.8501C299.539 19.4203 297.275 18.7055 294.336 18.7055H278.606V70.2945Z" fill="#252533"/>
<path d="M402.294 71.6051H349.147V54.5676H402.294V71.6051ZM420.407 87.0937H398.362L372.861 16.9183H378.104L352.484 87.0937H331.154L364.4 1.90629H387.161L420.407 87.0937Z" fill="#252533"/>
<path d="M476.669 87.0937H456.173V1.90629H476.669V87.0937ZM539.468 87.0937H512.776L473.69 42.8916H475.597L509.678 1.90629H534.464L497.761 44.6787V41.1044L539.468 87.0937Z" fill="#252533"/>
<path d="M612.46 71.6051H559.313V54.5676H612.46V71.6051ZM630.573 87.0937H608.527L583.026 16.9183H588.27L562.649 87.0937H541.319L574.566 1.90629H597.326L630.573 87.0937Z" fill="#252533"/>
<path d="M668.909 87.0937H648.413V17.9906H668.909V87.0937ZM694.529 19.1821H622.793V1.90629H694.529V19.1821Z" fill="#252533"/>
<path d="M769.854 87.0937H707.65V1.90629H769.854V18.9438H728.146V70.0562H769.854V87.0937ZM767.589 52.7805H726.955V35.743H767.589V52.7805Z" fill="#252533"/>
<path d="M784.804 87.0937V1.90629H843.432V19.1821H794.337L805.3 6.9103V87.0937H784.804Z" fill="#252533"/>
<path d="M892.394 89C885.641 89 879.445 87.888 873.804 85.664C868.164 83.44 863.238 80.3423 859.028 76.3708C854.897 72.3994 851.679 67.7131 849.376 62.3119C847.151 56.8313 846.039 50.8742 846.039 44.4404C846.039 38.0067 847.151 32.0892 849.376 26.6881C851.679 21.2869 854.897 16.6006 859.028 12.6292C863.238 8.65774 868.164 5.56002 873.804 3.33601C879.445 1.112 885.641 0 892.394 0C899.146 0 905.343 1.112 910.983 3.33601C916.624 5.56002 921.509 8.65774 925.64 12.6292C929.851 16.6006 933.068 21.2869 935.293 26.6881C937.596 32.0892 938.748 38.0067 938.748 44.4404C938.748 50.8742 937.596 56.8313 935.293 62.3119C933.068 67.7131 929.851 72.3994 925.64 76.3708C921.509 80.3423 916.624 83.44 910.983 85.664C905.343 87.888 899.146 89 892.394 89ZM892.394 71.0094C897.319 71.0094 901.609 69.8974 905.263 67.6734C908.997 65.3699 911.897 62.2325 913.962 58.261C916.107 54.2102 917.18 49.6033 917.18 44.4404C917.18 39.2775 916.107 34.7104 913.962 30.739C911.897 26.7675 908.997 23.6698 905.263 21.4458C901.609 19.1423 897.319 17.9906 892.394 17.9906C887.548 17.9906 883.258 19.1423 879.524 21.4458C875.79 23.6698 872.851 26.7675 870.706 30.739C868.64 34.7104 867.608 39.2775 867.608 44.4404C867.608 49.6033 868.64 54.2102 870.706 58.261C872.851 62.2325 875.79 65.3699 879.524 67.6734C883.258 69.8974 887.548 71.0094 892.394 71.0094Z" fill="#252533"/>
<path d="M974.387 87.0937H953.891V1.90629H989.52C995.876 1.90629 1001.48 3.05801 1006.32 5.36144C1011.17 7.66488 1014.94 10.8817 1017.64 15.012C1020.34 19.0629 1021.69 23.8286 1021.69 29.3092C1021.69 34.7104 1020.34 39.4761 1017.64 43.6064C1014.94 47.7367 1011.17 50.9536 1006.32 53.257C1001.48 55.5605 995.876 56.7122 989.52 56.7122H973.195V39.6747H989.52C993.016 39.6747 995.796 38.7613 997.862 36.9344C999.927 35.0281 1000.96 32.4864 1000.96 29.3092C1000.96 26.1321 999.927 23.6301 997.862 21.8032C995.796 19.8969 993.016 18.9438 989.52 18.9438H974.387V87.0937Z" fill="#252533"/>
<path d="M1035.35 87.0937V1.90629H1055.85V78.6345H1041.78L1090.64 1.90629H1112.09V87.0937H1091.6V9.29317H1105.89L1056.8 87.0937H1035.35Z" fill="#252533"/>
<path d="M1131.12 87.0937V1.90629H1151.62V78.6345H1137.56L1186.41 1.90629H1207.86V87.0937H1187.37V9.29317H1201.67L1152.57 87.0937H1131.12Z" fill="#252533"/>
<path d="M1250.17 87.0937V1.90629H1287.83C1293.55 1.90629 1298.55 2.81972 1302.84 4.64658C1307.13 6.47345 1310.47 9.05488 1312.85 12.3909C1315.23 15.6475 1316.43 19.4998 1316.43 23.9478C1316.43 28.1575 1315.23 31.8907 1312.85 35.1473C1310.47 38.4038 1307.13 40.9456 1302.84 42.7724C1298.55 44.5993 1293.55 45.5127 1287.83 45.5127H1271.86V39.1981H1287.83C1294.26 39.1981 1299.86 40.1513 1304.63 42.0576C1309.47 43.8844 1313.25 46.5056 1315.95 49.921C1318.65 53.3365 1320 57.3873 1320 62.0736C1320 67.0776 1318.65 71.4859 1315.95 75.2985C1313.25 79.0317 1309.47 81.9308 1304.63 83.996C1299.86 86.0611 1294.26 87.0937 1287.83 87.0937H1250.17ZM1270.67 70.2945H1287.95C1291.44 70.2945 1294.18 69.4605 1296.17 67.7925C1298.23 66.0451 1299.27 63.6622 1299.27 60.6439C1299.27 57.8639 1298.23 55.6796 1296.17 54.091C1294.18 52.5025 1291.44 51.7082 1287.95 51.7082H1269.47V35.3855H1286.4C1289.34 35.3855 1291.6 34.631 1293.19 33.1218C1294.86 31.5332 1295.69 29.3887 1295.69 26.6881C1295.69 24.1464 1294.86 22.2004 1293.19 20.8501C1291.6 19.4203 1289.34 18.7055 1286.4 18.7055H1270.67V70.2945Z" fill="#252533"/>
</svg>
