<svg width="1440" height="508" viewBox="0 0 1440 508" fill="none" xmlns="http://www.w3.org/2000/svg">
<path d="M-34 198.001C46.5 116.334 237.4 -30.2991 357 36.5009C506.5 120.001 305.5 494.501 251.5 410.501C197.5 326.501 477.5 152.001 769 159.001C1060.5 166.001 952 588.501 880 492.501C808 396.501 1098.5 70.5005 977.5 6.99944C898.062 -34.6898 922.074 192.19 1136 208C1352.5 224 1297.5 136 1526.5 108.5" stroke="#DEDEE6" stroke-width="2" stroke-dasharray="12 12"/>
<path d="M412.5 99.0005L410 123.001L397 102.5L407 107.501L412.5 99.0005Z" fill="#DEDEE6"/>
<path d="M873 387L887.999 368.5L886 392L882.252 383.915L873 387Z" fill="#DEDEE6"/>
<path d="M1261 193.502L1288.81 193.502L1268 210L1273.5 198.501L1261 193.502Z" fill="#DEDEE6"/>
</svg>
