<svg width="375" height="1483" viewBox="0 0 375 1483" fill="none" xmlns="http://www.w3.org/2000/svg">
<path d="M-300.529 137.237C-185.072 138.364 54.6759 173.95 90.0134 307.281C134.185 473.945 -277.594 590.51 -254.572 492.633C-231.55 394.756 90.7245 475.344 289.651 691.273C488.578 907.203 106.781 1124.32 125.894 1005.02C145.006 885.712 584.308 867.881 545.602 735.844C520.192 649.161 372.746 825.317 511.008 991.252C650.934 1159.18 676.151 1057.78 856.316 1204.32" stroke="#E4E1E3" stroke-width="2" stroke-dasharray="12 12"/>
<path d="M83.6081 391.2L64.4831 406.186L70.2278 382.428L73.6049 393.167L83.6081 391.2Z" fill="#E4E1E3"/>
<path d="M197.374 926.119L221.264 924.031L202.852 939.029L206.083 930.657L197.374 926.119Z" fill="#E4E1E3"/>
</svg>
