<svg width="24" height="24" viewBox="0 0 24 24" fill="none" xmlns="http://www.w3.org/2000/svg">
<g clip-path="url(#clip0_648_23682)">
<path d="M18.5628 13.5045C18.3612 10.8797 17.1391 9.23479 16.0609 7.78327C15.0626 6.43948 14.2004 5.27905 14.2004 3.56725C14.2004 3.42975 14.1234 3.30407 14.0013 3.24106C13.8788 3.17767 13.7317 3.18806 13.6203 3.26897C12.0011 4.42762 10.6501 6.38043 10.1782 8.24369C9.85054 9.5409 9.8072 10.9992 9.80111 11.9624C8.3058 11.643 7.96707 9.40629 7.96349 9.38192C7.94665 9.2659 7.87577 9.16494 7.77264 9.1098C7.66845 9.05539 7.54598 9.05143 7.44034 9.10372C7.36193 9.14167 5.51568 10.0798 5.40826 13.8253C5.40073 13.9499 5.40039 14.0749 5.40039 14.1998C5.40039 17.8387 8.36128 20.7994 12.0004 20.7994C12.0054 20.7997 12.0108 20.8005 12.0151 20.7994C12.0165 20.7994 12.0179 20.7994 12.0197 20.7994C15.6499 20.789 18.6004 17.8323 18.6004 14.1998C18.6004 14.0169 18.5628 13.5045 18.5628 13.5045ZM12.0004 20.0661C10.7872 20.0661 9.80039 19.0149 9.80039 17.7227C9.80039 17.6787 9.80005 17.6343 9.80324 17.5798C9.81792 17.0349 9.92142 16.6629 10.0349 16.4155C10.2476 16.8723 10.6279 17.2923 11.2456 17.2923C11.4483 17.2923 11.6123 17.1283 11.6123 16.9257C11.6123 16.4037 11.623 15.8014 11.753 15.2579C11.8687 14.7759 12.1451 14.2632 12.4953 13.8522C12.651 14.3857 12.9547 14.8175 13.2512 15.2389C13.6755 15.8418 14.1141 16.4652 14.1911 17.5283C14.1958 17.5913 14.2005 17.6547 14.2005 17.7227C14.2004 19.0149 13.2136 20.0661 12.0004 20.0661Z" fill="#FFFCFC"/>
</g>
<defs>
<clipPath id="clip0_648_23682">
<rect width="17.6" height="17.6" fill="white" transform="translate(3.2002 3.19995)"/>
</clipPath>
</defs>
</svg>
