<svg width="21" height="21" viewBox="0 0 21 21" fill="none" xmlns="http://www.w3.org/2000/svg">
<g clip-path="url(#clip0_158_3491)">
<mask id="mask0_158_3491" style="mask-type:alpha" maskUnits="userSpaceOnUse" x="0" y="0" width="21" height="21">
<path d="M15.7857 20.9903C16.2497 20.9806 16.717 20.9514 17.1744 20.8703C17.6384 20.786 18.0732 20.6563 18.495 20.439C18.9136 20.2315 19.2932 19.9559 19.621 19.6316C19.9487 19.3073 20.2277 18.9312 20.4354 18.5193C20.6496 18.101 20.7859 17.6762 20.8702 17.2157C20.9546 16.7618 20.9806 16.3013 20.9903 15.8408C20.9968 15.63 20.9968 15.4192 21 15.2085V5.7883C21 5.57752 21 5.36674 20.9903 5.15596C20.9806 4.69873 20.9513 4.23503 20.8702 3.78104C20.7859 3.32057 20.6496 2.89252 20.4354 2.47746C20.2245 2.06887 19.9487 1.69271 19.621 1.36519C19.2932 1.04092 18.9104 0.765287 18.495 0.557752C18.07 0.346973 17.6384 0.210778 17.1744 0.126467C16.717 0.0453984 16.2497 0.0162138 15.7857 0.00648548C15.6981 0.00648548 15.6104 0.00324274 15.4677 0H6.11635L5.2208 0.00972825C4.7568 0.0194565 4.28956 0.0486412 3.83204 0.12971C3.36805 0.214021 2.93325 0.346973 2.51143 0.560995C2.09286 0.76853 1.71322 1.04416 1.38551 1.36844C1.05779 1.69271 0.77874 2.06887 0.571076 2.4807C0.353678 2.89901 0.220643 3.32381 0.136279 3.78428C0.0486712 4.23826 0.0227132 4.69873 0.0097342 5.1592C0.00324475 5.36998 0.00324474 5.58076 0 5.79154V15.2117C0 15.4225 0.00324475 15.6333 0.0097342 15.8441C0.0194685 16.3013 0.0486712 16.765 0.12979 17.219C0.214154 17.6795 0.350432 18.1075 0.564586 18.5225C0.775494 18.9312 1.0513 19.3073 1.37902 19.6348C1.70674 19.9591 2.08961 20.2347 2.50494 20.4423C2.93001 20.6531 3.36156 20.7892 3.82555 20.8736C4.28306 20.9546 4.7503 20.9838 5.21431 20.9935C5.30191 20.9935 5.38953 20.9968 5.53229 21H14.3872L15.7792 20.9935L15.7857 20.9903Z" fill="#299400"/>
</mask>
<g mask="url(#mask0_158_3491)">
<path d="M0 0H21V21H0V0Z" fill="#19AA1E"/>
<path fill-rule="evenodd" clip-rule="evenodd" d="M0 0H21V6.89062L0 3.60938V0Z" fill="#FFB919"/>
<path fill-rule="evenodd" clip-rule="evenodd" d="M0 18.7031L21 15.4219V21H0V18.7031Z" fill="#82D714"/>
<path fill-rule="evenodd" clip-rule="evenodd" d="M0 3.19434L7.33022 4.33967C8.2427 3.76208 9.32829 3.4454 10.5 3.4454C12.1229 3.4454 13.5805 4.05291 14.6419 5.11974C14.7759 5.25436 14.9022 5.39511 15.0206 5.5413L21 6.47557V7.30583L15.6278 6.46643C16.0268 7.23235 16.2422 8.08571 16.2422 8.95659C16.2422 10.0817 15.9905 11.2034 15.4704 12.3297L15.4545 12.3638L15.2336 12.8372H14.7111C13.6323 12.8372 12.9167 13.1599 12.4489 13.7318C12.0816 14.1809 11.8691 14.7862 11.7976 15.4466L11.7954 15.4673L11.785 15.5728L11.7806 15.6187L11.7721 15.7085C11.7447 16.0034 11.7264 16.2535 11.7171 16.4573L21 15.0069V15.8371L0 19.1183V18.2881L9.29329 16.836L9.28926 16.6496L9.28804 16.597L9.28725 16.5701L9.28576 16.5285C9.27745 16.3025 9.25671 16.0128 9.22355 15.6616L9.21716 15.595L9.20579 15.4797C9.13911 14.8158 8.92981 14.2027 8.56346 13.747C8.1005 13.1713 7.39151 12.8439 6.3214 12.8373L6.28886 12.8372H5.76644L5.54551 12.3638C5.01458 11.2261 4.75781 10.093 4.75781 8.95659C4.75781 7.52743 5.33761 6.14547 6.3581 5.11974C6.38756 5.09013 6.41732 5.06087 6.44739 5.03197L0 4.02458V3.19434Z" fill="white"/>
<path fill-rule="evenodd" clip-rule="evenodd" d="M10.5 4.26562C13.4318 4.26562 15.4219 6.52222 15.4219 8.9565C15.4219 9.93379 15.2086 10.9507 14.7111 12.0168C11.8262 12.0168 11.1142 14.0829 10.9795 15.3828L10.9709 15.4694C10.9253 15.9333 10.8989 16.3055 10.8917 16.5862L10.1103 16.7083L10.1101 16.683C10.1071 16.3888 10.0793 15.9762 10.0267 15.4451L10.0244 15.4219C9.90001 14.1248 9.2029 12.0168 6.28886 12.0168C5.79135 10.9507 5.57812 9.93379 5.57812 8.9565C5.57812 6.52222 7.5682 4.26562 10.5 4.26562Z" fill="#0073FA"/>
</g>
</g>
<defs>
<clipPath id="clip0_158_3491">
<rect width="21" height="21" rx="6" fill="white"/>
</clipPath>
</defs>
</svg>
