<svg width="52" height="52" viewBox="0 0 52 52" fill="none" xmlns="http://www.w3.org/2000/svg">
<rect width="52" height="52" rx="16" fill="#F94C23" fill-opacity="0.1"/>
<path fill-rule="evenodd" clip-rule="evenodd" d="M15.4059 15.4059C14 16.8118 14 19.0745 14 23.6V28.4C14 32.9255 14 35.1882 15.4059 36.5941C16.8118 38 19.0745 38 23.6 38H28.4C32.9255 38 35.1882 38 36.5941 36.5941C38 35.1882 38 32.9255 38 28.4V23.6C38 19.0745 38 16.8118 36.5941 15.4059C35.1882 14 32.9255 14 28.4 14H23.6C19.0745 14 16.8118 14 15.4059 15.4059ZM26.4292 22.8584C25.262 23.3438 22.9293 24.3486 19.431 25.8728C18.863 26.0987 18.5654 26.3197 18.5383 26.5357C18.4925 26.9009 18.9499 27.0447 19.5726 27.2406C19.6573 27.2672 19.7451 27.2948 19.8351 27.3241C20.4478 27.5232 21.272 27.7562 21.7004 27.7655C22.0891 27.7739 22.5229 27.6136 23.0018 27.2848C26.2703 25.0784 27.9575 23.9633 28.0635 23.9392C28.1382 23.9222 28.2417 23.9009 28.3119 23.9633C28.3821 24.0257 28.3752 24.1438 28.3677 24.1754C28.3224 24.3686 26.5272 26.0376 25.5982 26.9012C25.3086 27.1705 25.1032 27.3615 25.0612 27.4051C24.9671 27.5028 24.8713 27.5952 24.7791 27.6841C24.2099 28.2328 23.7831 28.6443 24.8028 29.3162C25.2928 29.6392 25.6849 29.9062 26.0761 30.1726C26.5033 30.4635 26.9294 30.7537 27.4808 31.1151C27.6212 31.2072 27.7554 31.3028 27.886 31.396C28.3832 31.7504 28.8299 32.0689 29.3817 32.0181C29.7024 31.9886 30.0336 31.6871 30.2018 30.7878C30.5994 28.6626 31.3808 24.0579 31.5614 22.1604C31.5772 21.9942 31.5573 21.7814 31.5413 21.688C31.5253 21.5946 31.4919 21.4615 31.3705 21.363C31.2267 21.2464 31.0048 21.2218 30.9055 21.2235C30.4542 21.2315 29.7617 21.4723 26.4292 22.8584Z" fill="#F94C23"/>
</svg>
