<svg width="24" height="24" viewBox="0 0 24 24" fill="none" xmlns="http://www.w3.org/2000/svg">
<path fill-rule="evenodd" clip-rule="evenodd" d="M1.40589 1.40589C0 2.81178 0 5.07452 0 9.6V14.4C0 18.9255 0 21.1882 1.40589 22.5941C2.81178 24 5.07452 24 9.6 24H14.4C18.9255 24 21.1882 24 22.5941 22.5941C24 21.1882 24 18.9255 24 14.4V9.6C24 5.07452 24 2.81178 22.5941 1.40589C21.1882 0 18.9255 0 14.4 0H9.6C5.07452 0 2.81178 0 1.40589 1.40589ZM12.4292 8.85837C11.262 9.34384 8.92928 10.3486 5.43104 11.8728C4.86298 12.0987 4.5654 12.3197 4.53831 12.5357C4.49253 12.9009 4.94986 13.0447 5.57262 13.2406C5.65733 13.2672 5.7451 13.2948 5.83508 13.3241C6.44778 13.5232 7.27197 13.7562 7.70043 13.7655C8.08909 13.7739 8.52287 13.6136 9.00179 13.2848C12.2703 11.0784 13.9575 9.96325 14.0635 9.93921C14.1382 9.92225 14.2417 9.90092 14.3119 9.96329C14.3821 10.0257 14.3752 10.1438 14.3677 10.1754C14.3224 10.3686 12.5272 12.0376 11.5982 12.9012C11.3086 13.1705 11.1032 13.3615 11.0612 13.4051C10.9671 13.5028 10.8713 13.5952 10.7791 13.6841C10.2099 14.2328 9.78306 14.6443 10.8028 15.3162C11.2928 15.6392 11.6849 15.9062 12.0761 16.1726C12.5033 16.4635 12.9294 16.7537 13.4808 17.1151C13.6212 17.2072 13.7554 17.3028 13.886 17.396C14.3832 17.7504 14.8299 18.0689 15.3817 18.0181C15.7024 17.9886 16.0336 17.6871 16.2018 16.7878C16.5994 14.6626 17.3808 10.0579 17.5614 8.16041C17.5772 7.99417 17.5573 7.78141 17.5413 7.68801C17.5253 7.59462 17.4919 7.46155 17.3705 7.36304C17.2267 7.24638 17.0048 7.22177 16.9055 7.22352C16.4542 7.23147 15.7617 7.47226 12.4292 8.85837Z" fill="#9E1D21"/>
</svg>
