<svg width="52" height="52" viewBox="0 0 52 52" fill="none" xmlns="http://www.w3.org/2000/svg">
<rect width="52" height="52" rx="16" fill="#F94C23" fill-opacity="0.1"/>
<path d="M28.4004 14C32.9256 14 35.1879 14.0004 36.5938 15.4062C37.9996 16.8121 38 19.0744 38 23.5996V28.4004C38 32.9256 37.9996 35.1879 36.5938 36.5938C35.1879 37.9996 32.9256 38 28.4004 38H23.5996C19.0744 38 16.8121 37.9996 15.4062 36.5938C14.0004 35.1879 14 32.9256 14 28.4004V23.5996C14 19.0744 14.0004 16.8121 15.4062 15.4062C16.8121 14.0004 19.0744 14 23.5996 14H28.4004ZM28.0791 18.4912C26.7614 18.2947 25.5673 18.2674 24.4307 18.4062C23.3646 18.5368 22.5618 18.7454 21.8291 19.082C20.3938 19.7412 19.5326 20.809 19.2695 22.2539C19.1415 22.9553 19.0558 23.5896 19.0059 24.1943C18.8907 25.5927 18.995 26.8307 19.3252 27.9775C19.6465 29.0956 20.2084 29.8951 21.043 30.4199C21.2561 30.5537 21.5274 30.6507 21.791 30.7441C21.9227 30.7908 22.0495 30.8362 22.1602 30.8848V33.1445C22.1603 33.4401 22.3998 33.6796 22.6953 33.6797C22.8348 33.6797 22.9685 33.6246 23.0684 33.5273L25.1533 31.5C25.2439 31.3967 25.244 31.3964 25.3369 31.3945C26.0492 31.3805 26.7778 31.3525 27.501 31.3135C28.377 31.2655 29.3917 31.1809 30.3477 30.7822C31.2225 30.4168 31.8618 29.8372 32.2451 29.0596C32.645 28.2481 32.8827 27.3684 32.9717 26.3721C33.1278 24.6201 33.0164 23.0998 32.6318 21.7246C32.3701 20.7908 31.8525 20.0512 31.0928 19.5283C30.1341 18.8679 29.0314 18.6333 28.0791 18.4912ZM22.6963 21.5342C22.9189 21.485 23.1162 21.5636 23.2812 21.7217C23.7381 22.1581 24.1001 22.6635 24.3721 23.2305C24.4911 23.4793 24.4371 23.6998 24.2344 23.8848C24.1928 23.9232 24.148 23.9592 24.1025 23.9932C23.6402 24.3411 23.5722 24.6041 23.8184 25.1279C24.2382 26.0194 24.9353 26.618 25.8369 26.9893C26.0744 27.0872 26.2987 27.0383 26.4805 26.8457C26.5047 26.8202 26.5319 26.795 26.5498 26.7656C26.9056 26.1725 27.4213 26.2318 27.8975 26.5703C28.2103 26.7923 28.5136 27.0264 28.8232 27.2529C29.2929 27.5991 29.2894 27.9243 29.0029 28.3926C28.7937 28.7349 28.4799 28.9724 28.1113 29.126C27.8419 29.2386 27.5663 29.2151 27.3008 29.1025C25.071 28.1592 23.3228 26.6711 22.167 24.5342C21.929 24.094 21.7633 23.6146 21.5732 23.1494C21.5342 23.0534 21.5378 22.9412 21.5205 22.8369C21.5372 22.085 22.1139 21.6622 22.6963 21.5342ZM26.5244 20.2393C28.7055 20.2393 30.4805 22.0142 30.4805 24.1953C30.4805 24.4922 30.4471 24.7882 30.3818 25.0742C30.3433 25.2443 30.193 25.3584 30.0254 25.3584C29.9986 25.3584 29.9711 25.3553 29.9443 25.3496C29.7474 25.3048 29.6235 25.1094 29.668 24.9131C29.7211 24.6796 29.748 24.4381 29.748 24.1963C29.748 22.4184 28.3019 20.9708 26.5234 20.9707C26.2809 20.9707 26.0402 20.9977 25.8066 21.0508C25.6109 21.0962 25.4134 20.9723 25.3691 20.7754C25.3243 20.5783 25.4484 20.3821 25.6455 20.3379C25.9321 20.272 26.2276 20.2393 26.5244 20.2393ZM26.3271 21.5195C27.9111 21.5195 29.2002 22.8086 29.2002 24.3926C29.2002 24.5531 29.1874 24.7144 29.1611 24.8711C29.1311 25.0495 28.976 25.1766 28.8008 25.1768C28.7809 25.1768 28.7597 25.1747 28.7393 25.1709C28.5404 25.1368 28.4062 24.9489 28.4395 24.75C28.4593 24.6335 28.4688 24.5129 28.4688 24.3926C28.4686 23.2113 27.5078 22.251 26.3271 22.251C26.2076 22.251 26.0874 22.2605 25.9697 22.2803C25.7701 22.3142 25.5821 22.1792 25.5488 21.9795C25.5155 21.7805 25.6499 21.5919 25.8496 21.5586C26.0062 21.533 26.1673 21.5195 26.3271 21.5195ZM26.0928 22.7998C27.1 22.7993 27.9199 23.62 27.9199 24.6279C27.9199 24.8295 27.7563 24.9932 27.5547 24.9932C27.3532 24.993 27.1895 24.8294 27.1895 24.6279C27.1895 24.0232 26.6975 23.5314 26.0928 23.5312C25.8912 23.5312 25.7275 23.3666 25.7275 23.165C25.7277 22.9636 25.8913 22.7998 26.0928 22.7998Z" fill="#F94C23"/>
</svg>
