<svg width="24" height="24" viewBox="0 0 24 24" fill="none" xmlns="http://www.w3.org/2000/svg">
<path d="M14.4004 0C18.9256 1.16045e-09 21.1879 0.000402875 22.5938 1.40625C23.9996 2.8121 24 5.07439 24 9.59961V14.4004C24 18.9256 23.9996 21.1879 22.5938 22.5938C21.1879 23.9996 18.9256 24 14.4004 24H9.59961C5.07439 24 2.8121 23.9996 1.40625 22.5938C0.000402875 21.1879 1.16045e-09 18.9256 0 14.4004V9.59961C1.16272e-09 5.07439 0.000402867 2.8121 1.40625 1.40625C2.8121 0.000402926 5.07439 1.16613e-09 9.59961 0H14.4004ZM14.0791 4.49121C12.7614 4.29474 11.5673 4.26737 10.4307 4.40625C9.36463 4.53681 8.56181 4.74544 7.8291 5.08203C6.39379 5.74122 5.53259 6.80895 5.26953 8.25391C5.14155 8.95527 5.05578 9.5896 5.00586 10.1943C4.89066 11.5927 4.99496 12.8307 5.3252 13.9775C5.64648 15.0956 6.20841 15.8951 7.04297 16.4199C7.25608 16.5537 7.52736 16.6507 7.79102 16.7441C7.9227 16.7908 8.04953 16.8362 8.16016 16.8848V19.1445C8.16028 19.4401 8.39976 19.6796 8.69531 19.6797C8.83483 19.6797 8.96852 19.6246 9.06836 19.5273L11.1533 17.5C11.2439 17.3967 11.244 17.3964 11.3369 17.3945C12.0492 17.3805 12.7778 17.3525 13.501 17.3135C14.377 17.2655 15.3917 17.1809 16.3477 16.7822C17.2225 16.4168 17.8618 15.8372 18.2451 15.0596C18.645 14.2481 18.8827 13.3684 18.9717 12.3721C19.1278 10.6201 19.0164 9.09977 18.6318 7.72461C18.3701 6.79085 17.8525 6.0512 17.0928 5.52832C16.1341 4.86787 15.0314 4.63329 14.0791 4.49121ZM8.69629 7.53418C8.91893 7.48499 9.11618 7.56364 9.28125 7.72168C9.73813 8.15812 10.1001 8.6635 10.3721 9.23047C10.4911 9.47934 10.4371 9.69985 10.2344 9.88477C10.1928 9.92317 10.148 9.95924 10.1025 9.99316C9.64018 10.3411 9.57223 10.6041 9.81836 11.1279C10.2382 12.0194 10.9353 12.618 11.8369 12.9893C12.0744 13.0872 12.2987 13.0383 12.4805 12.8457C12.5047 12.8202 12.5319 12.795 12.5498 12.7656C12.9056 12.1725 13.4213 12.2318 13.8975 12.5703C14.2103 12.7923 14.5136 13.0264 14.8232 13.2529C15.2929 13.5991 15.2894 13.9243 15.0029 14.3926C14.7937 14.7349 14.4799 14.9724 14.1113 15.126C13.8419 15.2386 13.5663 15.2151 13.3008 15.1025C11.071 14.1592 9.32283 12.6711 8.16699 10.5342C7.92901 10.094 7.76327 9.61458 7.57324 9.14941C7.53424 9.05344 7.53778 8.9412 7.52051 8.83691C7.53724 8.08503 8.11394 7.66217 8.69629 7.53418ZM12.5244 6.23926C14.7055 6.23926 16.4805 8.01419 16.4805 10.1953C16.4805 10.4922 16.4471 10.7882 16.3818 11.0742C16.3433 11.2443 16.193 11.3584 16.0254 11.3584C15.9986 11.3584 15.9711 11.3553 15.9443 11.3496C15.7474 11.3048 15.6235 11.1094 15.668 10.9131C15.7211 10.6796 15.748 10.4381 15.748 10.1963C15.748 8.41843 14.3019 6.9708 12.5234 6.9707C12.2809 6.9707 12.0402 6.99769 11.8066 7.05078C11.6109 7.0962 11.4134 6.97233 11.3691 6.77539C11.3243 6.57827 11.4484 6.38205 11.6455 6.33789C11.9321 6.27203 12.2276 6.23927 12.5244 6.23926ZM12.3271 7.51953C13.9111 7.51953 15.2002 8.80858 15.2002 10.3926C15.2002 10.5531 15.1874 10.7144 15.1611 10.8711C15.1311 11.0495 14.976 11.1766 14.8008 11.1768C14.7809 11.1768 14.7597 11.1747 14.7393 11.1709C14.5404 11.1368 14.4062 10.9489 14.4395 10.75C14.4593 10.6335 14.4688 10.5129 14.4688 10.3926C14.4686 9.2113 13.5078 8.25098 12.3271 8.25098C12.2076 8.25099 12.0874 8.26046 11.9697 8.28027C11.7701 8.31419 11.5821 8.17915 11.5488 7.97949C11.5155 7.78045 11.6499 7.59187 11.8496 7.55859C12.0062 7.53303 12.1673 7.51955 12.3271 7.51953ZM12.0928 8.7998C13.1 8.79929 13.9199 9.62001 13.9199 10.6279C13.9199 10.8295 13.7563 10.9932 13.5547 10.9932C13.3532 10.993 13.1895 10.8294 13.1895 10.6279C13.1895 10.0232 12.6975 9.53137 12.0928 9.53125C11.8912 9.53125 11.7275 9.36664 11.7275 9.16504C11.7277 8.96361 11.8913 8.7998 12.0928 8.7998Z" fill="#9E1D21"/>
</svg>
