<svg width="52" height="52" viewBox="0 0 52 52" fill="none" xmlns="http://www.w3.org/2000/svg">
<rect width="52" height="52" rx="16" fill="#F94C23" fill-opacity="0.1"/>
<path d="M28.4004 14C32.9256 14 35.1879 14.0004 36.5938 15.4062C37.9996 16.8121 38 19.0744 38 23.5996V28.4004C38 32.9256 37.9996 35.1879 36.5938 36.5938C35.1879 37.9996 32.9256 38 28.4004 38H23.5996C19.0744 38 16.8121 37.9996 15.4062 36.5938C14.0004 35.1879 14 32.9256 14 28.4004V23.5996C14 19.0744 14.0004 16.8121 15.4062 15.4062C16.8121 14.0004 19.0744 14 23.5996 14H28.4004ZM26.2002 18C22.0583 18 18.7002 21.3581 18.7002 25.5C18.7002 26.907 19.0954 28.2186 19.7695 29.3438L18.7676 33L22.501 32.0195C23.5931 32.6404 24.8543 33 26.2002 33C30.342 32.9999 33.7002 29.6418 33.7002 25.5C33.7002 21.3582 30.342 18.0001 26.2002 18ZM23.9883 22.0059C24.122 22.009 24.2679 22.0192 24.4072 22.3271C24.5729 22.6934 24.9332 23.6129 24.9795 23.7061C25.0256 23.7991 25.0584 23.9086 24.9941 24.0303C24.9329 24.1553 24.9005 24.2312 24.8105 24.3418C24.7175 24.4492 24.6156 24.5829 24.5312 24.6641C24.4382 24.7571 24.3418 24.8594 24.4492 25.0449C24.5568 25.2306 24.9306 25.8389 25.4824 26.3301C26.1917 26.9638 26.7903 27.1588 26.9766 27.252C27.1627 27.3449 27.2705 27.33 27.3779 27.2051C27.4886 27.0831 27.8427 26.6658 27.9678 26.4795C28.0896 26.2932 28.2141 26.3245 28.3828 26.3857C28.5541 26.447 29.4668 26.897 29.6533 26.9902C29.8395 27.0833 29.9619 27.1295 30.0088 27.2051C30.0569 27.2832 30.0566 27.6552 29.9023 28.0889C29.748 28.5218 28.9906 28.941 28.6504 28.9707C28.3073 29.0026 27.9866 29.1246 26.4199 28.5078C24.5325 27.7645 23.3411 25.8329 23.2451 25.7031C23.152 25.5813 22.4883 24.6957 22.4883 23.7832C22.4885 22.8681 22.9675 22.4197 23.1357 22.2334C23.307 22.0472 23.5078 22.002 23.6328 22.002C23.7547 22.002 23.8802 22.0002 23.9883 22.0059Z" fill="#F94C23"/>
</svg>
