<svg width="24" height="24" viewBox="0 0 24 24" fill="none" xmlns="http://www.w3.org/2000/svg">
<path d="M14.4004 0C18.9256 1.16045e-09 21.1879 0.000402875 22.5938 1.40625C23.9996 2.8121 24 5.07439 24 9.59961V14.4004C24 18.9256 23.9996 21.1879 22.5938 22.5938C21.1879 23.9996 18.9256 24 14.4004 24H9.59961C5.07439 24 2.8121 23.9996 1.40625 22.5938C0.000402875 21.1879 1.16045e-09 18.9256 0 14.4004V9.59961C1.16272e-09 5.07439 0.000402867 2.8121 1.40625 1.40625C2.8121 0.000402926 5.07439 1.16613e-09 9.59961 0H14.4004ZM12.2002 4C8.05832 4 4.7002 7.35813 4.7002 11.5C4.7002 12.907 5.09544 14.2186 5.76953 15.3438L4.76758 19L8.50098 18.0195C9.59305 18.6404 10.8543 19 12.2002 19C16.342 18.9999 19.7002 15.6418 19.7002 11.5C19.7002 7.35819 16.342 4.00011 12.2002 4ZM9.98828 8.00586C10.122 8.00899 10.2679 8.0192 10.4072 8.32715C10.5729 8.6934 10.9332 9.61293 10.9795 9.70605C11.0256 9.79906 11.0584 9.90864 10.9941 10.0303C10.9329 10.1553 10.9005 10.2312 10.8105 10.3418C10.7175 10.4492 10.6156 10.5829 10.5312 10.6641C10.4382 10.7571 10.3418 10.8594 10.4492 11.0449C10.5568 11.2306 10.9306 11.8389 11.4824 12.3301C12.1917 12.9638 12.7903 13.1588 12.9766 13.252C13.1627 13.3449 13.2705 13.33 13.3779 13.2051C13.4886 13.0831 13.8427 12.6658 13.9678 12.4795C14.0896 12.2932 14.2141 12.3245 14.3828 12.3857C14.5541 12.447 15.4668 12.897 15.6533 12.9902C15.8395 13.0833 15.9619 13.1295 16.0088 13.2051C16.0569 13.2832 16.0566 13.6552 15.9023 14.0889C15.748 14.5218 14.9906 14.941 14.6504 14.9707C14.3073 15.0026 13.9866 15.1246 12.4199 14.5078C10.5325 13.7645 9.34113 11.8329 9.24512 11.7031C9.15199 11.5813 8.48828 10.6957 8.48828 9.7832C8.48845 8.86814 8.96753 8.4197 9.13574 8.2334C9.30697 8.04717 9.50781 8.00196 9.63281 8.00195C9.75469 8.00195 9.88016 8.00023 9.98828 8.00586Z" fill="#9E1D21"/>
</svg>
