<svg width="32" height="32" viewBox="0 0 32 32" fill="none" xmlns="http://www.w3.org/2000/svg">
<path fill-rule="evenodd" clip-rule="evenodd" d="M1.87452 1.87452C0 3.74903 0 6.76602 0 12.8V19.2C0 25.234 0 28.251 1.87452 30.1255C3.74903 32 6.76602 32 12.8 32H19.2C25.234 32 28.251 32 30.1255 30.1255C32 28.251 32 25.234 32 19.2V12.8C32 6.76602 32 3.74903 30.1255 1.87452C28.251 0 25.234 0 19.2 0H12.8C6.76602 0 3.74903 0 1.87452 1.87452ZM16.5722 11.8112C15.016 12.4585 11.9057 13.7982 7.24138 15.8304C6.48397 16.1316 6.0872 16.4262 6.05108 16.7143C5.99004 17.2013 6.59981 17.393 7.43016 17.6541C7.54311 17.6896 7.66013 17.7264 7.78011 17.7654C8.59704 18.031 9.69596 18.3416 10.2672 18.354C10.7855 18.3652 11.3638 18.1515 12.0024 17.713C16.3604 14.7713 18.61 13.2843 18.7513 13.2523C18.8509 13.2297 18.989 13.2012 19.0825 13.2844C19.1761 13.3675 19.1669 13.525 19.157 13.5673C19.0966 13.8248 16.703 16.0501 15.4643 17.2017C15.0782 17.5606 14.8043 17.8153 14.7483 17.8734C14.6229 18.0037 14.495 18.127 14.3722 18.2454C13.6132 18.977 13.0441 19.5257 14.4037 20.4217C15.057 20.8522 15.5799 21.2083 16.1015 21.5635C16.6711 21.9514 17.2392 22.3383 17.9743 22.8202C18.1616 22.9429 18.3405 23.0704 18.5147 23.1946C19.1776 23.6672 19.7732 24.0918 20.509 24.0241C20.9365 23.9848 21.3781 23.5827 21.6024 22.3837C22.1325 19.5501 23.1744 13.4105 23.4152 10.8806C23.4362 10.6589 23.4097 10.3752 23.3884 10.2507C23.3671 10.1262 23.3225 9.94873 23.1607 9.81738C22.969 9.66183 22.673 9.62903 22.5407 9.63136C21.9389 9.64196 21.0156 9.96301 16.5722 11.8112Z" fill="#2AABEE"/>
</svg>
