<svg width="20" height="20" viewBox="0 0 20 20" fill="none" xmlns="http://www.w3.org/2000/svg">
<path fill-rule="evenodd" clip-rule="evenodd" d="M1.17157 1.17157C0 2.34315 0 4.22876 0 8V12C0 15.7712 0 17.6569 1.17157 18.8284C2.34315 20 4.22876 20 8 20H12C15.7712 20 17.6569 20 18.8284 18.8284C20 17.6569 20 15.7712 20 12V8C20 4.22876 20 2.34315 18.8284 1.17157C17.6569 0 15.7712 0 12 0H8C4.22876 0 2.34315 0 1.17157 1.17157ZM10.3576 7.38197C9.38499 7.78653 7.44107 8.62387 4.52587 9.89397C4.05248 10.0822 3.8045 10.2664 3.78193 10.4465C3.74378 10.7508 4.12488 10.8706 4.64385 11.0338C4.71444 11.056 4.78758 11.079 4.86257 11.1034C5.37315 11.2693 6.05998 11.4635 6.41703 11.4712C6.74091 11.4782 7.10239 11.3447 7.50149 11.0707C10.2253 9.23204 11.6313 8.30271 11.7195 8.28267C11.7818 8.26854 11.8681 8.25077 11.9266 8.30274C11.9851 8.35471 11.9793 8.45313 11.9731 8.47954C11.9354 8.64049 10.4394 10.0313 9.66521 10.751C9.42387 10.9754 9.25268 11.1346 9.21769 11.1709C9.13929 11.2523 9.05939 11.3294 8.9826 11.4034C8.50826 11.8606 8.15255 12.2036 9.0023 12.7635C9.41065 13.0326 9.73742 13.2552 10.0634 13.4772C10.4194 13.7196 10.7745 13.9614 11.234 14.2626C11.351 14.3393 11.4628 14.419 11.5717 14.4966C11.986 14.792 12.3582 15.0574 12.8181 15.0151C13.0853 14.9905 13.3613 14.7392 13.5015 13.9898C13.8328 12.2188 14.484 8.38158 14.6345 6.80034C14.6477 6.66181 14.6311 6.48451 14.6177 6.40668C14.6044 6.32885 14.5766 6.21796 14.4754 6.13587C14.3556 6.03865 14.1706 6.01814 14.0879 6.0196C13.7118 6.02623 13.1347 6.22688 10.3576 7.38197Z" fill="#2AABEE"/>
</svg>
