<svg width="32" height="32" viewBox="0 0 32 32" fill="none" xmlns="http://www.w3.org/2000/svg">
<path d="M19.2002 0C25.234 2.17584e-10 28.2505 0.00050349 30.125 1.875C31.9995 3.7495 32 6.76596 32 12.7998V19.2002C32 25.234 31.9995 28.2505 30.125 30.125C28.2505 31.9995 25.234 32 19.2002 32H12.7998C6.76596 32 3.7495 31.9995 1.875 30.125C0.000503491 28.2505 2.17596e-10 25.234 0 19.2002V12.7998C2.16946e-10 6.76596 0.00050346 3.7495 1.875 1.875C3.7495 0.00050354 6.76596 2.18662e-10 12.7998 0H19.2002ZM16.2686 5.33594C10.7462 5.33615 6.26855 9.81357 6.26855 15.3359C6.2686 17.2118 6.79563 18.9608 7.69434 20.4609L6.3584 25.3359L11.3369 24.0283C12.7929 24.8561 14.4741 25.3359 16.2686 25.3359C21.791 25.3359 26.2684 20.8583 26.2686 15.3359C26.2686 9.81344 21.7911 5.33594 16.2686 5.33594ZM13.3193 10.6777C13.4977 10.6819 13.6921 10.6947 13.8779 11.1055C14.0988 11.5938 14.5799 12.8192 14.6416 12.9434C14.7032 13.0674 14.7468 13.2137 14.6611 13.376C14.5795 13.5426 14.5369 13.6436 14.417 13.791C14.2928 13.9343 14.1564 14.1124 14.0439 14.2207C13.9198 14.3448 13.7915 14.4812 13.9346 14.7285C14.0779 14.976 14.5758 15.7874 15.3115 16.4424C16.2568 17.2868 17.0548 17.5466 17.3037 17.6709C17.552 17.7951 17.6965 17.776 17.8398 17.6094C17.9875 17.4466 18.4594 16.8889 18.626 16.6406C18.7883 16.3928 18.954 16.436 19.1787 16.5176C19.407 16.5992 20.6242 17.1988 20.873 17.3232C21.1212 17.4473 21.2841 17.5087 21.3467 17.6094C21.4108 17.7135 21.4109 18.2098 21.2051 18.7881C20.999 19.3655 19.9884 19.9237 19.5352 19.9629C19.0778 20.0054 18.6501 20.168 16.5615 19.3457C14.0418 18.3531 12.4523 15.7721 12.3281 15.6055C12.2027 15.4413 11.3193 14.2624 11.3193 13.0469C11.3195 11.8266 11.9593 11.2289 12.1836 10.9805C12.4118 10.7323 12.679 10.671 12.8457 10.6709C13.0081 10.6709 13.1753 10.6703 13.3193 10.6777Z" fill="#2CB742"/>
</svg>
