<svg width="20" height="20" viewBox="0 0 20 20" fill="none" xmlns="http://www.w3.org/2000/svg">
<path d="M12 0C15.7712 0 17.6566 0.000302076 18.8281 1.17188C19.9997 2.34345 20 4.22876 20 8V12C20 15.7712 19.9997 17.6566 18.8281 18.8281C17.6566 19.9997 15.7712 20 12 20H8C4.22876 20 2.34345 19.9997 1.17188 18.8281C0.000302076 17.6566 0 15.7712 0 12V8C0 4.22876 0.000302076 2.34345 1.17188 1.17188C2.34345 0.000302076 4.22876 0 8 0H12ZM10.167 3.33398C6.71562 3.33421 3.91699 6.13256 3.91699 9.58398C3.91703 10.7564 4.24685 11.8495 4.80859 12.7871L3.97363 15.834L7.08496 15.0166C7.99491 15.5339 9.04553 15.8339 10.167 15.834C13.6185 15.834 16.4169 13.0355 16.417 9.58398C16.417 6.13242 13.6186 3.33398 10.167 3.33398ZM8.32422 6.67285C8.43566 6.67546 8.55673 6.68372 8.67285 6.94043C8.81094 7.24585 9.11186 8.01129 9.15039 8.08887C9.18882 8.16638 9.21566 8.258 9.16211 8.35938C9.11122 8.46326 9.08458 8.52617 9.00977 8.61816C8.93216 8.70775 8.84668 8.81901 8.77637 8.88672C8.6988 8.96429 8.61949 9.04952 8.70898 9.2041C8.79857 9.35879 9.10946 9.86602 9.56934 10.2754C10.1605 10.8035 10.6592 10.9663 10.8145 11.0439C10.9695 11.1214 11.0599 11.109 11.1494 11.0049C11.2418 10.9031 11.5365 10.5545 11.6406 10.3994C11.7421 10.2445 11.8458 10.2713 11.9863 10.3223C12.1291 10.3734 12.8895 10.7484 13.0449 10.8262C13.2 10.9037 13.3017 10.942 13.3408 11.0049C13.3809 11.07 13.3815 11.3798 13.2529 11.7412C13.1243 12.1021 12.4923 12.4511 12.209 12.4756C11.9231 12.5022 11.6563 12.6039 10.3506 12.0898C8.77753 11.4702 7.78478 9.86058 7.70508 9.75293C7.62747 9.65137 7.07422 8.91374 7.07422 8.15332C7.0743 7.39045 7.47417 7.01652 7.61426 6.86133C7.75692 6.70632 7.92421 6.66797 8.02832 6.66797C8.12982 6.66797 8.23417 6.66817 8.32422 6.67285Z" fill="#2CB742"/>
</svg>
