<svg width="40" height="40" viewBox="0 0 40 40" fill="none" xmlns="http://www.w3.org/2000/svg">
<rect width="40" height="40" rx="8" fill="#F94C23"/>
<path d="M25 29H15C11 29 10 28 10 24V16C10 12 11 11 15 11H25C29 11 30 12 30 16V24C30 28 29 29 25 29Z" stroke="#FFFCFC" stroke-width="1.5" stroke-linecap="round" stroke-linejoin="round"/>
<path d="M22 16H27" stroke="#FFFCFC" stroke-width="1.5" stroke-linecap="round" stroke-linejoin="round"/>
<path d="M23 20H27" stroke="#FFFCFC" stroke-width="1.5" stroke-linecap="round" stroke-linejoin="round"/>
<path d="M25 24H27" stroke="#FFFCFC" stroke-width="1.5" stroke-linecap="round" stroke-linejoin="round"/>
<path d="M16.4995 19.2899C17.4991 19.2899 18.3095 18.4796 18.3095 17.4799C18.3095 16.4803 17.4991 15.6699 16.4995 15.6699C15.4998 15.6699 14.6895 16.4803 14.6895 17.4799C14.6895 18.4796 15.4998 19.2899 16.4995 19.2899Z" stroke="#FFFCFC" stroke-width="1.5" stroke-linecap="round" stroke-linejoin="round"/>
<path d="M20 24.3298C19.86 22.8798 18.71 21.7398 17.26 21.6098C16.76 21.5598 16.25 21.5598 15.74 21.6098C14.29 21.7498 13.14 22.8798 13 24.3298" stroke="#FFFCFC" stroke-width="1.5" stroke-linecap="round" stroke-linejoin="round"/>
</svg>
